Simulation
nRows=44
nColumns=15
endheader
time  TH_x TH_y TH_z SC_y  SC_z  SC_x  AC_y  AC_z  AC_x  GH_y  GH_z  GH_yy  EL_x  PS_y
0.75  0.000000  0.000000  0.000000  -34.11460564502327  2.6741588453582876  20.104696547974914  60.92010694100051  1.1479441452638324  -12.318482329327546  20.74372347442198  33.1205199772555  -17.424464705661627  19.955386611700927  0.000000
0.765  0.000000  0.000000  0.000000  -34.28666946376179  2.8284373034048054  20.36103456907208  61.00607270591924  1.5085753251478404  -12.237901881196143  20.818318088395625  33.62716478917044  -17.75974225583451  19.753399038954726  0.000000
0.78  0.000000  0.000000  0.000000  -34.46670327334122  2.9865032499391613  20.623053956552067  61.090062356603404  1.8643002094549914  -12.149290822412924  20.899656011619506  34.118637194769704  -18.093960674184675  19.550528554366547  0.000000
0.7949999999999999  0.000000  0.000000  0.000000  -34.655483777450264  3.147954881142372  20.891075644229208  61.17325059943013  2.2138663992574235  -12.052014082059443  20.987212652019846  34.59475410798602  -18.42701968656166  19.34735073779373  0.000000
0.8099999999999999  0.000000  0.000000  0.000000  -34.85361616183706  3.311803441447549  21.165379755606537  61.25707818883231  2.555982368596908  -11.945690121617753  21.080123911802406  35.055701003712585  -18.758895434381735  19.14415099448322  0.000000
0.825  0.000000  0.000000  0.000000  -35.061615232165735  3.477147655209457  21.44626758264637  61.343138723697784  2.889269191400596  -11.829930190642353  21.177565274298267  35.50159767309007  -19.0895641480997  18.94120390175232  0.000000
0.84  0.000000  0.000000  0.000000  -35.27992317418395  3.643093306289597  21.734024117519887  61.43306514207523  3.21213527399028  -11.704419584015493  21.278599043376452  35.932746481445214  -19.41882187223332  18.738846776894245  0.000000
0.855  0.000000  0.000000  0.000000  -35.508935924365446  3.8087030008935794  22.028932413081804  61.52846058161434  3.5230644547130687  -11.568898917712435  21.382376532890405  36.349354434925985  -19.746429041605555  18.537472445688703  0.000000
0.87  0.000000  0.000000  0.000000  -35.748850975912234  3.9730013495276895  22.33111443300793  61.63087815610784  3.8205552932936047  -11.423401255870283  21.48798925151887  36.75181269427872  -20.07199776835991  18.337534246782003  0.000000
0.885  0.000000  0.000000  0.000000  -35.999672119407606  4.134968931438442  22.640573471860662  61.741525266688654  4.103459376062981  -11.26814228910564  21.594774918235355  37.14032047235066  -20.395037865763044  18.13959049968538  0.000000
0.8999999999999999  0.000000  0.000000  0.000000  -36.2610457082951  4.293592213031218  22.957011429353276  61.86127193258145  4.37087745404678  -11.10378311057934  21.70215949356084  37.515214281313355  -20.71491677122496  17.944320912930348  0.000000
0.9149999999999999  0.000000  0.000000  0.000000  -36.532396119134404  4.447958455413114  23.27993078012093  61.9903669384963  4.622419307481578  -10.931184610283957  21.81002437255538  37.876548008776446  -21.03084886409217  17.752586846153434  0.000000
0.9299999999999999  0.000000  0.000000  0.000000  -36.81284679471132  4.59711302235297  23.608182729848753  62.12863843310864  4.858228545244977  -10.751530330298834  21.918338912110503  38.224640357861546  -21.34193984644988  17.565387900844662  0.000000
0.945  0.000000  0.000000  0.000000  -37.10097373139295  4.740052245609181  23.940423211702925  62.275306707535364  5.079076195917466  -10.56626397443864  22.02713898763131  38.559547379447125  -21.647269452737973  17.383692390901608  0.000000
0.96  0.000000  0.000000  0.000000  -37.39468133583992  4.876170022671104  24.275313558236142  62.429244470304226  5.2857132462787435  -10.37721770255046  22.136051041023286  38.881315478186444  -21.945957156950744  17.208368987942467  0.000000
0.975  0.000000  0.000000  0.000000  -37.69204659734498  5.0049036490338095  24.61154315988176  62.58912062807814  5.479295154293926  -10.186084988729283  22.244713032170324  39.18969374457125  -22.236894205202965  17.04019141126349  0.000000
0.99  0.000000  0.000000  0.000000  -37.991362802720495  5.125655673158266  24.947542235075343  62.753657530766205  5.660865629273701  -9.99458887737136  22.352297120076  39.484906340825276  -22.519038305799697  16.879955326246677  0.000000
1.005  0.000000  0.000000  0.000000  -38.29128075982572  5.238162387978225  25.28190063824533  62.92163689356887  5.831189448704036  -9.803958078788424  22.457703586825758  39.76705786851894  -22.791522956504124  16.727894733432564  0.000000
1.02  0.000000  0.000000  0.000000  -38.5899090953543  5.342463965129499  25.61295704736264  63.09139631792011  5.990976261892061  -9.615556254338092  22.55890606925762  40.03631947040821  -23.05336940910129  16.58444394664854  0.000000
1.035  0.000000  0.000000  0.000000  -38.885282396035755  5.438740985243761  25.939552738808185  63.26121967406527  6.140927221916811  -9.430602738525122  22.65381768088839  40.29234588064675  -23.303562776846473  16.45012098941663  0.000000
1.05  0.000000  0.000000  0.000000  -39.17624374399548  5.527354357034145  26.260583598061242  63.4304492450491  6.281125133180003  -9.249635095134098  22.741048185007255  40.535650400919906  -23.541262836608396  16.32454210460541  0.000000
1.065  0.000000  0.000000  0.000000  -39.46184185149951  5.608479333483729  26.57517666716332  63.59854743120077  6.411979693818686  -9.073140343597506  22.82007276418537  40.766579207578054  -23.76574259402303  16.20797975265083  0.000000
1.08  0.000000  0.000000  0.000000  -39.740824558731184  5.682374117341701  26.88225072732975  63.76470877833308  6.533774675893637  -8.901855836923907  22.890434858292043  40.985988783669654  -23.976099983370467  16.100990574769426  0.000000
1.095  0.000000  0.000000  0.000000  -40.01189316175434  5.7495618091508165  27.18092979280974  63.92786680608141  6.64678296184656  -8.736339333761942  22.9515747359388  41.194300698618484  -24.171695500482873  16.004188435084135  0.000000
1.1099999999999999  0.000000  0.000000  0.000000  -40.273576889907346  5.810538183441671  27.47011531258645  64.08683458403077  6.751049099716458  -8.577355404918919  23.00231009473792  41.39242135192596  -24.351885673761167  15.918114788050659  0.000000
1.125  0.000000  0.000000  0.000000  -40.52474758475291  5.865889350475773  27.748969974921014  64.24064990438501  6.846833872341595  -8.42528435494306  23.041458259806607  41.58074336888829  -24.51637559816239  15.842833840937699  0.000000
1.14  0.000000  0.000000  0.000000  -40.76436327680229  5.91660797528661  28.016378219579334  64.38812847485964  6.934299453363787  -8.280254164678235  23.067777828176972  41.75996590919499  -24.66478921254746  15.778335171274684  0.000000
1.155  0.000000  0.000000  0.000000  -40.99187295328826  5.963046138886895  28.27174832111284  64.52870550262578  7.013934310011764  -8.142673447673891  23.08043320934526  41.93046834320188  -24.797131520874483  15.724333590408651  0.000000
1.17  0.000000  0.000000  0.000000  -41.20673771276807  6.005455303728431  28.514276806746544  64.66167775744725  7.085852880498037  -8.013083531563515  23.078491732014662  42.0932489891138  -24.913456462284394  15.680598401432785  0.000000
1.185  0.000000  0.000000  0.000000  -41.40856992453735  6.044566942790194  28.74372871938454  64.78613690702507  7.1501663674503035  -7.891929843115005  23.061537374658446  42.24828986505136  -25.014077304403777  15.647151349849622  0.000000
1.2  0.000000  0.000000  0.000000  -41.59707400939088  6.080791182452647  28.959521029748085  64.90119731921965  7.206706137916685  -7.779663664668218  23.029511720173932  42.39637876897281  -25.099331077043743  15.623867110483825  0.000000
1.2149999999999999  0.000000  0.000000  0.000000  -41.77257765627573  6.1138322060582135  29.16114940085706  65.0066806540745  7.256325898335171  -7.676306004599723  22.983377123798917  42.53751605094878  -25.17018598709419  15.61034186928273  0.000000
1.23  0.000000  0.000000  0.000000  -41.935053185821054  6.144472307225969  29.347015379708253  65.10215916254587  7.300081472604328  -7.5816369372992725  22.924263603024716  42.67186228461593  -25.227666671273926  15.60635915210007  0.000000
1.2449999999999999  0.000000  0.000000  0.000000  -42.08421835453863  6.172853726077605  29.51600659620267  65.18770416653777  7.340157599769403  -7.4959617079286005  22.8535966419742  42.79780918909773  -25.273147617103195  15.611717617627107  0.000000
1.26  0.000000  0.000000  0.000000  -42.21958513463028  6.198528705025249  29.66659727289178  65.26262646418002  7.378037512979489  -7.419458119040179  22.773147161546508  42.91432720710264  -25.307742076810086  15.626182408195765  0.000000
1.275  0.000000  0.000000  0.000000  -42.341037575935545  6.2209847439601  29.797543642670508  65.32755232151388  7.415574676125981  -7.352866965076818  22.68576527101126  43.018834943153806  -25.33366889897205  15.649109190848435  0.000000
1.29  0.000000  0.000000  0.000000  -42.44794599316945  6.240046527276906  29.90685793195395  65.38130489505528  7.453748025639072  -7.296211081962128  22.595292747153227  43.10867340221712  -25.352525631357135  15.68033865620429  0.000000
1.305  0.000000  0.000000  0.000000  -42.53946076647629  6.255255393757753  29.992742552433285  65.42422748787142  7.49438533738144  -7.250774881818684  22.507024557040612  43.179017990461105  -25.366942485898075  15.719001627871554  0.000000
1.3199999999999998  0.000000  0.000000  0.000000  -42.61373614209862  6.26658082330806  30.05240876615173  65.45411815496813  7.538062037708095  -7.216780880464798  22.4273180142152  43.22474900826618  -25.37916873671442  15.765125987063334  0.000000
1.335  0.000000  0.000000  0.000000  -42.66869001701836  6.273971414089883  30.08336629893401  65.47060945518254  7.586177561330394  -7.196249323340828  22.36477256420798  43.23807856230349  -25.39183163867351  15.81747431903922  0.000000
1.3499999999999999  0.000000  0.000000  0.000000  -42.70103310897346  6.277616624407799  30.081972397471148  65.47022645041511  7.63814315494217  -7.1900320564790094  22.328951736672902  43.21103881444149  -25.408086701816536  15.876717544951632  0.000000
1.365  0.000000  0.000000  0.000000  -42.708304703779646  6.277136228003659  30.045178199329577  65.45136563864386  7.694118103399909  -7.200976567460593  22.333151423191875  43.133027641750246  -25.429514141626097  15.941504229094246  0.000000
1.38  0.000000  0.000000  0.000000  -42.68689065455331  6.270343913446583  29.9678919226771  65.41133558084817  7.7524615224071  -7.232413262047955  22.38968660430909  42.99454094457387  -25.461147535872225  16.01377311301279  0.000000
1.395  0.000000  0.000000  0.000000  -42.63401521694305  6.252015580800078  29.846292923393133  65.34847059169432  7.814150284659231  -7.29034940611336  22.514922792262645  42.78286420661772  -25.501709167830374  16.092599469162657  0.000000
